# xmcd CD database file
#
# Track frame offsets:
#	150
#	14352
#	28065
#	41512
#	60502
#	75487
#	90127
#	104945
#	122962
#	137977
#	148917
#
# Disc length: 2138 seconds
#
# Revision: 3
# Processed by: cddbd v1.5.2PL0 Copyright (c) Steve Scherf et al.
# Submitted via: CDex 1.51
#
DISCID=9608580b
DTITLE=Lyle Lovett - Pontiac
DYEAR=1987
DGENRE=Country
TTITLE0=If I Had A Boat
TTITLE1=Give Back My Heart
TTITLE2=I Loved You Yesterday
TTITLE3=Walk Through The Bottomland
TTITLE4=L.A. County
TTITLE5=She's No Lady
TTITLE6=M-O-N-E-Y
TTITLE7=Black And Blue
TTITLE8=Simple Song
TTITLE9=Pontiac
TTITLE10=She's Hot To Go
EXTD=YEAR: 1987
EXTT0=
EXTT1=
EXTT2=
EXTT3=
EXTT4=
EXTT5=
EXTT6=
EXTT7=
EXTT8=
EXTT9=
EXTT10=
PLAYORDER=
